solid OpenSCAD_Model
  facet normal -1 0 0
    outer loop
      vertex -7.5 -7.5 -1
      vertex -7.5 7.5 1
      vertex -7.5 7.5 -1
    endloop
  endfacet
  facet normal -1 -0 0
    outer loop
      vertex -7.5 7.5 1
      vertex -7.5 -7.5 -1
      vertex -7.5 -7.5 1
    endloop
  endfacet
  facet normal 0 0 1
    outer loop
      vertex 7.5 7.5 1
      vertex 2 0 1
      vertex 7.5 -7.5 1
    endloop
  endfacet
  facet normal 0 0 1
    outer loop
      vertex 7.5 7.5 1
      vertex 1.90211 0.618033 1
      vertex 2 0 1
    endloop
  endfacet
  facet normal 0 0 1
    outer loop
      vertex 7.5 7.5 1
      vertex 1.61803 1.17557 1
      vertex 1.90211 0.618033 1
    endloop
  endfacet
  facet normal 0 0 1
    outer loop
      vertex 7.5 7.5 1
      vertex 1.17557 1.61803 1
      vertex 1.61803 1.17557 1
    endloop
  endfacet
  facet normal 0 0 1
    outer loop
      vertex 7.5 7.5 1
      vertex 0.618033 1.90211 1
      vertex 1.17557 1.61803 1
    endloop
  endfacet
  facet normal 0 0 1
    outer loop
      vertex 7.5 7.5 1
      vertex 0 2 1
      vertex 0.618033 1.90211 1
    endloop
  endfacet
  facet normal -0 0 1
    outer loop
      vertex -7.5 7.5 1
      vertex 0 2 1
      vertex 7.5 7.5 1
    endloop
  endfacet
  facet normal 0 0 1
    outer loop
      vertex 0 2 1
      vertex -7.5 7.5 1
      vertex -0.618033 1.90211 1
    endloop
  endfacet
  facet normal 0 0 1
    outer loop
      vertex -1.90211 0.618033 1
      vertex -7.5 7.5 1
      vertex -2 0 1
    endloop
  endfacet
  facet normal 0 0 1
    outer loop
      vertex -1.61803 1.17557 1
      vertex -7.5 7.5 1
      vertex -1.90211 0.618033 1
    endloop
  endfacet
  facet normal 0 0 1
    outer loop
      vertex -1.17557 1.61803 1
      vertex -7.5 7.5 1
      vertex -1.61803 1.17557 1
    endloop
  endfacet
  facet normal 0 0 1
    outer loop
      vertex -0.618033 1.90211 1
      vertex -7.5 7.5 1
      vertex -1.17557 1.61803 1
    endloop
  endfacet
  facet normal -0 0 1
    outer loop
      vertex 1.90211 -0.618033 1
      vertex 7.5 -7.5 1
      vertex 2 0 1
    endloop
  endfacet
  facet normal -0 0 1
    outer loop
      vertex 1.61803 -1.17557 1
      vertex 7.5 -7.5 1
      vertex 1.90211 -0.618033 1
    endloop
  endfacet
  facet normal -0 0 1
    outer loop
      vertex 1.17557 -1.61803 1
      vertex 7.5 -7.5 1
      vertex 1.61803 -1.17557 1
    endloop
  endfacet
  facet normal -0 0 1
    outer loop
      vertex 0.618033 -1.90211 1
      vertex 7.5 -7.5 1
      vertex 1.17557 -1.61803 1
    endloop
  endfacet
  facet normal -0 0 1
    outer loop
      vertex 0 -2 1
      vertex 7.5 -7.5 1
      vertex 0.618033 -1.90211 1
    endloop
  endfacet
  facet normal 0 0 1
    outer loop
      vertex -7.5 -7.5 1
      vertex 0 -2 1
      vertex -0.618033 -1.90211 1
    endloop
  endfacet
  facet normal 0 0 1
    outer loop
      vertex -7.5 -7.5 1
      vertex -0.618033 -1.90211 1
      vertex -1.17557 -1.61803 1
    endloop
  endfacet
  facet normal 0 0 1
    outer loop
      vertex -7.5 -7.5 1
      vertex -2 0 1
      vertex -7.5 7.5 1
    endloop
  endfacet
  facet normal 0 0 1
    outer loop
      vertex -2 0 1
      vertex -7.5 -7.5 1
      vertex -1.90211 -0.618033 1
    endloop
  endfacet
  facet normal 0 0 1
    outer loop
      vertex 0 -2 1
      vertex -7.5 -7.5 1
      vertex 7.5 -7.5 1
    endloop
  endfacet
  facet normal 0 0 1
    outer loop
      vertex -1.61803 -1.17557 1
      vertex -7.5 -7.5 1
      vertex -1.17557 -1.61803 1
    endloop
  endfacet
  facet normal 0 0 1
    outer loop
      vertex -1.90211 -0.618033 1
      vertex -7.5 -7.5 1
      vertex -1.61803 -1.17557 1
    endloop
  endfacet
  facet normal 1 -0 0
    outer loop
      vertex 7.5 -7.5 1
      vertex 7.5 7.5 -1
      vertex 7.5 7.5 1
    endloop
  endfacet
  facet normal 1 0 0
    outer loop
      vertex 7.5 7.5 -1
      vertex 7.5 -7.5 1
      vertex 7.5 -7.5 -1
    endloop
  endfacet
  facet normal 0 1 -0
    outer loop
      vertex 7.5 7.5 -1
      vertex -7.5 7.5 1
      vertex 7.5 7.5 1
    endloop
  endfacet
  facet normal 0 1 0
    outer loop
      vertex -7.5 7.5 1
      vertex 7.5 7.5 -1
      vertex -7.5 7.5 -1
    endloop
  endfacet
  facet normal 0 0 -1
    outer loop
      vertex 7.5 -7.5 -1
      vertex 2 0 -1
      vertex 7.5 7.5 -1
    endloop
  endfacet
  facet normal 0 0 -1
    outer loop
      vertex 7.5 -7.5 -1
      vertex 1.90211 -0.618033 -1
      vertex 2 0 -1
    endloop
  endfacet
  facet normal 0 0 -1
    outer loop
      vertex 7.5 -7.5 -1
      vertex 1.61803 -1.17557 -1
      vertex 1.90211 -0.618033 -1
    endloop
  endfacet
  facet normal 0 0 -1
    outer loop
      vertex 7.5 -7.5 -1
      vertex 1.17557 -1.61803 -1
      vertex 1.61803 -1.17557 -1
    endloop
  endfacet
  facet normal 0 0 -1
    outer loop
      vertex 7.5 -7.5 -1
      vertex 0.618033 -1.90211 -1
      vertex 1.17557 -1.61803 -1
    endloop
  endfacet
  facet normal 0 0 -1
    outer loop
      vertex 7.5 -7.5 -1
      vertex 0 -2 -1
      vertex 0.618033 -1.90211 -1
    endloop
  endfacet
  facet normal 0 0 -1
    outer loop
      vertex -7.5 -7.5 -1
      vertex 0 -2 -1
      vertex 7.5 -7.5 -1
    endloop
  endfacet
  facet normal -0 0 -1
    outer loop
      vertex 0 -2 -1
      vertex -7.5 -7.5 -1
      vertex -0.618033 -1.90211 -1
    endloop
  endfacet
  facet normal -0 0 -1
    outer loop
      vertex -1.90211 -0.618033 -1
      vertex -7.5 -7.5 -1
      vertex -2 0 -1
    endloop
  endfacet
  facet normal -0 0 -1
    outer loop
      vertex -1.61803 -1.17557 -1
      vertex -7.5 -7.5 -1
      vertex -1.90211 -0.618033 -1
    endloop
  endfacet
  facet normal -0 0 -1
    outer loop
      vertex -1.17557 -1.61803 -1
      vertex -7.5 -7.5 -1
      vertex -1.61803 -1.17557 -1
    endloop
  endfacet
  facet normal -0 0 -1
    outer loop
      vertex -0.618033 -1.90211 -1
      vertex -7.5 -7.5 -1
      vertex -1.17557 -1.61803 -1
    endloop
  endfacet
  facet normal 0 0 -1
    outer loop
      vertex 1.90211 0.618033 -1
      vertex 7.5 7.5 -1
      vertex 2 0 -1
    endloop
  endfacet
  facet normal 0 0 -1
    outer loop
      vertex 1.61803 1.17557 -1
      vertex 7.5 7.5 -1
      vertex 1.90211 0.618033 -1
    endloop
  endfacet
  facet normal 0 0 -1
    outer loop
      vertex 1.17557 1.61803 -1
      vertex 7.5 7.5 -1
      vertex 1.61803 1.17557 -1
    endloop
  endfacet
  facet normal 0 0 -1
    outer loop
      vertex 0.618033 1.90211 -1
      vertex 7.5 7.5 -1
      vertex 1.17557 1.61803 -1
    endloop
  endfacet
  facet normal 0 0 -1
    outer loop
      vertex 0 2 -1
      vertex 7.5 7.5 -1
      vertex 0.618033 1.90211 -1
    endloop
  endfacet
  facet normal 0 0 -1
    outer loop
      vertex -7.5 7.5 -1
      vertex 0 2 -1
      vertex -0.618033 1.90211 -1
    endloop
  endfacet
  facet normal 0 0 -1
    outer loop
      vertex -7.5 7.5 -1
      vertex -0.618033 1.90211 -1
      vertex -1.17557 1.61803 -1
    endloop
  endfacet
  facet normal 0 0 -1
    outer loop
      vertex -7.5 7.5 -1
      vertex -2 0 -1
      vertex -7.5 -7.5 -1
    endloop
  endfacet
  facet normal 0 0 -1
    outer loop
      vertex -2 0 -1
      vertex -7.5 7.5 -1
      vertex -1.90211 0.618033 -1
    endloop
  endfacet
  facet normal 0 0 -1
    outer loop
      vertex 0 2 -1
      vertex -7.5 7.5 -1
      vertex 7.5 7.5 -1
    endloop
  endfacet
  facet normal 0 0 -1
    outer loop
      vertex -1.61803 1.17557 -1
      vertex -7.5 7.5 -1
      vertex -1.17557 1.61803 -1
    endloop
  endfacet
  facet normal 0 0 -1
    outer loop
      vertex -1.90211 0.618033 -1
      vertex -7.5 7.5 -1
      vertex -1.61803 1.17557 -1
    endloop
  endfacet
  facet normal 0 -1 0
    outer loop
      vertex -7.5 -7.5 -1
      vertex 7.5 -7.5 1
      vertex -7.5 -7.5 1
    endloop
  endfacet
  facet normal 0 -1 -0
    outer loop
      vertex 7.5 -7.5 1
      vertex -7.5 -7.5 -1
      vertex 7.5 -7.5 -1
    endloop
  endfacet
  facet normal -0.987688 -0.156435 0
    outer loop
      vertex 2 0 -1
      vertex 1.90211 0.618033 1
      vertex 1.90211 0.618033 -1
    endloop
  endfacet
  facet normal -0.987688 -0.156435 0
    outer loop
      vertex 1.90211 0.618033 1
      vertex 2 0 -1
      vertex 2 0 1
    endloop
  endfacet
  facet normal 0.987688 -0.156435 0
    outer loop
      vertex -2 0 1
      vertex -1.90211 0.618033 -1
      vertex -1.90211 0.618033 1
    endloop
  endfacet
  facet normal 0.987688 -0.156435 0
    outer loop
      vertex -1.90211 0.618033 -1
      vertex -2 0 1
      vertex -2 0 -1
    endloop
  endfacet
  facet normal -0.156435 -0.987688 0
    outer loop
      vertex 0 2 -1
      vertex 0.618033 1.90211 1
      vertex 0 2 1
    endloop
  endfacet
  facet normal -0.156435 -0.987688 -0
    outer loop
      vertex 0.618033 1.90211 1
      vertex 0 2 -1
      vertex 0.618033 1.90211 -1
    endloop
  endfacet
  facet normal 0.156435 0.987688 -0
    outer loop
      vertex 0 -2 -1
      vertex -0.618033 -1.90211 1
      vertex 0 -2 1
    endloop
  endfacet
  facet normal 0.156435 0.987688 0
    outer loop
      vertex -0.618033 -1.90211 1
      vertex 0 -2 -1
      vertex -0.618033 -1.90211 -1
    endloop
  endfacet
  facet normal -0.707107 -0.707107 0
    outer loop
      vertex 1.61803 1.17557 -1
      vertex 1.17557 1.61803 1
      vertex 1.17557 1.61803 -1
    endloop
  endfacet
  facet normal -0.707107 -0.707107 0
    outer loop
      vertex 1.17557 1.61803 1
      vertex 1.61803 1.17557 -1
      vertex 1.61803 1.17557 1
    endloop
  endfacet
  facet normal -0.891006 -0.453991 0
    outer loop
      vertex 1.90211 0.618033 -1
      vertex 1.61803 1.17557 1
      vertex 1.61803 1.17557 -1
    endloop
  endfacet
  facet normal -0.891006 -0.453991 0
    outer loop
      vertex 1.61803 1.17557 1
      vertex 1.90211 0.618033 -1
      vertex 1.90211 0.618033 1
    endloop
  endfacet
  facet normal -0.453991 -0.891006 0
    outer loop
      vertex 0.618033 1.90211 -1
      vertex 1.17557 1.61803 1
      vertex 0.618033 1.90211 1
    endloop
  endfacet
  facet normal -0.453991 -0.891006 -0
    outer loop
      vertex 1.17557 1.61803 1
      vertex 0.618033 1.90211 -1
      vertex 1.17557 1.61803 -1
    endloop
  endfacet
  facet normal 0.453991 -0.891006 0
    outer loop
      vertex -1.17557 1.61803 -1
      vertex -0.618033 1.90211 1
      vertex -1.17557 1.61803 1
    endloop
  endfacet
  facet normal 0.453991 -0.891006 0
    outer loop
      vertex -0.618033 1.90211 1
      vertex -1.17557 1.61803 -1
      vertex -0.618033 1.90211 -1
    endloop
  endfacet
  facet normal 0.156435 -0.987688 0
    outer loop
      vertex -0.618033 1.90211 -1
      vertex 0 2 1
      vertex -0.618033 1.90211 1
    endloop
  endfacet
  facet normal 0.156435 -0.987688 0
    outer loop
      vertex 0 2 1
      vertex -0.618033 1.90211 -1
      vertex 0 2 -1
    endloop
  endfacet
  facet normal -0.891006 0.453991 0
    outer loop
      vertex 1.61803 -1.17557 -1
      vertex 1.90211 -0.618033 1
      vertex 1.90211 -0.618033 -1
    endloop
  endfacet
  facet normal -0.891006 0.453991 0
    outer loop
      vertex 1.90211 -0.618033 1
      vertex 1.61803 -1.17557 -1
      vertex 1.61803 -1.17557 1
    endloop
  endfacet
  facet normal 0.987688 0.156435 0
    outer loop
      vertex -1.90211 -0.618033 1
      vertex -2 0 -1
      vertex -2 0 1
    endloop
  endfacet
  facet normal 0.987688 0.156435 0
    outer loop
      vertex -2 0 -1
      vertex -1.90211 -0.618033 1
      vertex -1.90211 -0.618033 -1
    endloop
  endfacet
  facet normal 0.707107 -0.707107 0
    outer loop
      vertex -1.61803 1.17557 1
      vertex -1.17557 1.61803 -1
      vertex -1.17557 1.61803 1
    endloop
  endfacet
  facet normal 0.707107 -0.707107 0
    outer loop
      vertex -1.17557 1.61803 -1
      vertex -1.61803 1.17557 1
      vertex -1.61803 1.17557 -1
    endloop
  endfacet
  facet normal 0.891006 -0.453991 0
    outer loop
      vertex -1.90211 0.618033 1
      vertex -1.61803 1.17557 -1
      vertex -1.61803 1.17557 1
    endloop
  endfacet
  facet normal 0.891006 -0.453991 0
    outer loop
      vertex -1.61803 1.17557 -1
      vertex -1.90211 0.618033 1
      vertex -1.90211 0.618033 -1
    endloop
  endfacet
  facet normal -0.987688 0.156435 0
    outer loop
      vertex 1.90211 -0.618033 -1
      vertex 2 0 1
      vertex 2 0 -1
    endloop
  endfacet
  facet normal -0.987688 0.156435 0
    outer loop
      vertex 2 0 1
      vertex 1.90211 -0.618033 -1
      vertex 1.90211 -0.618033 1
    endloop
  endfacet
  facet normal -0.156435 0.987688 0
    outer loop
      vertex 0.618033 -1.90211 -1
      vertex 0 -2 1
      vertex 0.618033 -1.90211 1
    endloop
  endfacet
  facet normal -0.156435 0.987688 0
    outer loop
      vertex 0 -2 1
      vertex 0.618033 -1.90211 -1
      vertex 0 -2 -1
    endloop
  endfacet
  facet normal 0.707107 0.707107 0
    outer loop
      vertex -1.17557 -1.61803 1
      vertex -1.61803 -1.17557 -1
      vertex -1.61803 -1.17557 1
    endloop
  endfacet
  facet normal 0.707107 0.707107 0
    outer loop
      vertex -1.61803 -1.17557 -1
      vertex -1.17557 -1.61803 1
      vertex -1.17557 -1.61803 -1
    endloop
  endfacet
  facet normal 0.891006 0.453991 0
    outer loop
      vertex -1.61803 -1.17557 1
      vertex -1.90211 -0.618033 -1
      vertex -1.90211 -0.618033 1
    endloop
  endfacet
  facet normal 0.891006 0.453991 0
    outer loop
      vertex -1.90211 -0.618033 -1
      vertex -1.61803 -1.17557 1
      vertex -1.61803 -1.17557 -1
    endloop
  endfacet
  facet normal -0.453991 0.891006 0
    outer loop
      vertex 1.17557 -1.61803 -1
      vertex 0.618033 -1.90211 1
      vertex 1.17557 -1.61803 1
    endloop
  endfacet
  facet normal -0.453991 0.891006 0
    outer loop
      vertex 0.618033 -1.90211 1
      vertex 1.17557 -1.61803 -1
      vertex 0.618033 -1.90211 -1
    endloop
  endfacet
  facet normal -0.707107 0.707107 0
    outer loop
      vertex 1.17557 -1.61803 -1
      vertex 1.61803 -1.17557 1
      vertex 1.61803 -1.17557 -1
    endloop
  endfacet
  facet normal -0.707107 0.707107 0
    outer loop
      vertex 1.61803 -1.17557 1
      vertex 1.17557 -1.61803 -1
      vertex 1.17557 -1.61803 1
    endloop
  endfacet
  facet normal 0.453991 0.891006 -0
    outer loop
      vertex -0.618033 -1.90211 -1
      vertex -1.17557 -1.61803 1
      vertex -0.618033 -1.90211 1
    endloop
  endfacet
  facet normal 0.453991 0.891006 0
    outer loop
      vertex -1.17557 -1.61803 1
      vertex -0.618033 -1.90211 -1
      vertex -1.17557 -1.61803 -1
    endloop
  endfacet
  facet normal -1 0 0
    outer loop
      vertex -5 15 -1
      vertex -5 45 1
      vertex -5 45 -1
    endloop
  endfacet
  facet normal -1 -0 0
    outer loop
      vertex -5 45 1
      vertex -5 15 -1
      vertex -5 15 1
    endloop
  endfacet
  facet normal -0 0 1
    outer loop
      vertex -5 45 1
      vertex 5 15 1
      vertex 5 45 1
    endloop
  endfacet
  facet normal 0 0 1
    outer loop
      vertex 5 15 1
      vertex -5 45 1
      vertex -5 15 1
    endloop
  endfacet
  facet normal 1 -0 0
    outer loop
      vertex 5 15 1
      vertex 5 45 -1
      vertex 5 45 1
    endloop
  endfacet
  facet normal 1 0 0
    outer loop
      vertex 5 45 -1
      vertex 5 15 1
      vertex 5 15 -1
    endloop
  endfacet
  facet normal 0 1 -0
    outer loop
      vertex 5 45 -1
      vertex -5 45 1
      vertex 5 45 1
    endloop
  endfacet
  facet normal 0 1 0
    outer loop
      vertex -5 45 1
      vertex 5 45 -1
      vertex -5 45 -1
    endloop
  endfacet
  facet normal 0 0 -1
    outer loop
      vertex -5 15 -1
      vertex 5 45 -1
      vertex 5 15 -1
    endloop
  endfacet
  facet normal -0 0 -1
    outer loop
      vertex 5 45 -1
      vertex -5 15 -1
      vertex -5 45 -1
    endloop
  endfacet
  facet normal 0 -1 0
    outer loop
      vertex -5 15 -1
      vertex 5 15 1
      vertex -5 15 1
    endloop
  endfacet
  facet normal 0 -1 -0
    outer loop
      vertex 5 15 1
      vertex -5 15 -1
      vertex 5 15 -1
    endloop
  endfacet
endsolid OpenSCAD_Model
